<svg version="1.1" viewBox="0.0 0.0 960.0 960.0" fill="none" stroke="none" stroke-linecap="square" stroke-miterlimit="10" xmlns:xlink="http://www.w3.org/1999/xlink" xmlns="http://www.w3.org/2000/svg"><clipPath id="p.0"><path d="m0 0l960.0 0l0 960.0l-960.0 0l0 -960.0z" clip-rule="nonzero"/></clipPath><g clip-path="url(#p.0)"><path fill="#000000" fill-opacity="0.0" d="m0 0l960.0 0l0 960.0l-960.0 0z" fill-rule="evenodd"/><path fill="#424242" d="m12.535433 480.0l0 0c0 -258.17355 209.29102 -467.46457 467.46457 -467.46457l0 0c123.97931 0 242.88074 49.250587 330.54736 136.9172c87.666626 87.66661 136.91718 206.56805 136.91718 330.54736l0 0c0 258.17352 -209.29102 467.46454 -467.46454 467.46454l0 0c-258.17355 0 -467.46457 -209.29102 -467.46457 -467.46454z" fill-rule="evenodd"/><path stroke="#f5f5f5" stroke-width="8.0" stroke-linejoin="round" stroke-linecap="butt" d="m12.535433 480.0l0 0c0 -258.17355 209.29102 -467.46457 467.46457 -467.46457l0 0c123.97931 0 242.88074 49.250587 330.54736 136.9172c87.666626 87.66661 136.91718 206.56805 136.91718 330.54736l0 0c0 258.17352 -209.29102 467.46454 -467.46454 467.46454l0 0c-258.17355 0 -467.46457 -209.29102 -467.46457 -467.46454z" fill-rule="evenodd"/><path fill="#000000" fill-opacity="0.0" d="m206.80124 642.614l233.6676 -404.1461l233.66757 404.1461z" fill-rule="evenodd"/><path stroke="#f5f5f5" stroke-width="8.0" stroke-linejoin="round" stroke-linecap="butt" d="m206.80124 642.614l233.6676 -404.1461l233.66757 404.1461z" fill-rule="evenodd"/><path fill="#000000" fill-opacity="0.0" d="m226.53084 662.3436l233.66759 -404.1461l233.6676 404.1461z" fill-rule="evenodd"/><path stroke="#f5f5f5" stroke-width="8.0" stroke-linejoin="round" stroke-linecap="butt" d="m226.53084 662.3436l233.66759 -404.1461l233.6676 404.1461z" fill-rule="evenodd"/><path fill="#000000" fill-opacity="0.0" d="m246.26044 682.07324l233.6676 -404.14612l233.6676 404.14612z" fill-rule="evenodd"/><path stroke="#f5f5f5" stroke-width="8.0" stroke-linejoin="round" stroke-linecap="butt" d="m246.26044 682.07324l233.6676 -404.14612l233.6676 404.14612z" fill-rule="evenodd"/><path fill="#000000" fill-opacity="0.0" d="m265.99005 701.8028l233.6676 -404.14606l233.6676 404.14606z" fill-rule="evenodd"/><path stroke="#f5f5f5" stroke-width="8.0" stroke-linejoin="round" stroke-linecap="butt" d="m265.99005 701.8028l233.6676 -404.14606l233.6676 404.14606z" fill-rule="evenodd"/><path fill="#000000" fill-opacity="0.0" d="m285.71964 721.5324l233.66763 -404.1461l233.66754 404.1461z" fill-rule="evenodd"/><path stroke="#f5f5f5" stroke-width="8.0" stroke-linejoin="round" stroke-linecap="butt" d="m285.71964 721.5324l233.66763 -404.1461l233.66754 404.1461z" fill-rule="evenodd"/></g></svg>